<?xml version="1.0" encoding="UTF-8"?>
<svg width="380px" height="127px" viewBox="0 0 380 127" version="1.1" xmlns="http://www.w3.org/2000/svg" xmlns:xlink="http://www.w3.org/1999/xlink">
    <!-- Generator: Sketch 53.2 (72643) - https://sketchapp.com -->
    <title>Untitled 2</title>
    <desc>Created with Sketch.</desc>
    <g id="Page-1" stroke="none" stroke-width="1" fill="none" fill-rule="evenodd">
        <path d="M162.3856,76.8398 L154.2896,76.8398 L152.7156,82.8558 L146.4376,82.8558 L155.6226,53.4618 L161.0536,53.4618 L170.2996,82.8558 L163.9606,82.8558 L162.3856,76.8398 Z M155.5816,71.8938 L161.0726,71.8938 L158.3276,61.4158 L155.5816,71.8938 Z" id="Fill-91" fill="#3DD1FF"></path>
        <polygon id="Fill-92" fill="#3DD1FF" points="188.2261 70.1374 178.9791 70.1374 178.9791 77.9304 189.9221 77.9304 189.9221 82.8554 173.0451 82.8554 173.0451 53.4624 189.8811 53.4624 189.8811 58.4084 178.9791 58.4084 178.9791 65.3524 188.2261 65.3524"></polygon>
        <path d="M202.2365,72.1158 L199.2895,72.1158 L199.2895,82.8558 L193.3535,82.8558 L193.3535,53.4618 L202.8215,53.4618 C205.7965,53.4618 208.0945,54.2328 209.7165,55.7738 C211.3375,57.3148 212.1495,59.5048 212.1495,62.3448 C212.1495,66.2478 210.7285,68.9798 207.8895,70.5408 L213.0375,82.5728 L213.0375,82.8558 L206.6575,82.8558 L202.2365,72.1158 Z M199.2895,67.1698 L202.6605,67.1698 C203.8445,67.1698 204.7325,66.7758 205.3255,65.9888 C205.9175,65.2018 206.2135,64.1488 206.2135,62.8298 C206.2135,59.8818 205.0625,58.4078 202.7615,58.4078 L199.2895,58.4078 L199.2895,67.1698 Z" id="Fill-93" fill="#3DD1FF"></path>
        <polygon id="Fill-95" fill="#3DD1FF" points="216.489 82.856 222.424 82.856 222.424 53.462 216.489 53.462"></polygon>
        <path d="M241.8047,76.8398 L233.7087,76.8398 L232.1347,82.8558 L225.8567,82.8558 L235.0417,53.4618 L240.4727,53.4618 L249.7187,82.8558 L243.3797,82.8558 L241.8047,76.8398 Z M235.0007,71.8938 L240.4927,71.8938 L237.7467,61.4158 L235.0007,71.8938 Z" id="Fill-96" fill="#3DD1FF"></path>
        <polygon id="Fill-97" fill="#3DD1FF" points="258.3986 77.93 268.8156 77.93 268.8156 82.856 252.4636 82.856 252.4636 53.462 258.3986 53.462"></polygon>
        <polygon id="Fill-98" fill="#050005" points="290.2351 56.6314 282.5031 56.6314 282.5031 82.8554 278.8091 82.8554 278.8091 56.6314 271.0971 56.6314 271.0971 53.4624 290.2351 53.4624"></polygon>
        <path d="M313.1281,70.743 C313.1281,74.754 312.2731,77.842 310.5641,80.009 C308.8551,82.176 306.4261,83.26 303.2761,83.26 C300.2481,83.26 297.8561,82.207 296.1001,80.1 C294.3431,77.994 293.4311,75.016 293.3641,71.167 L293.3641,65.635 C293.3641,61.706 294.2321,58.627 295.9681,56.399 C297.7051,54.172 300.1271,53.058 303.2361,53.058 C306.3311,53.058 308.7441,54.125 310.4741,56.258 C312.2031,58.391 313.0881,61.436 313.1281,65.393 L313.1281,70.743 Z M309.4341,65.595 C309.4341,62.486 308.9261,60.175 307.9091,58.66 C306.8931,57.147 305.3361,56.389 303.2361,56.389 C301.2041,56.389 299.6661,57.156 298.6231,58.691 C297.5801,60.225 297.0521,62.486 297.0381,65.474 L297.0381,70.743 C297.0381,73.744 297.5601,76.032 298.6031,77.607 C299.6461,79.182 301.2041,79.969 303.2761,79.969 C305.3491,79.969 306.8831,79.242 307.8791,77.788 C308.8751,76.335 309.3931,74.108 309.4341,71.106 L309.4341,65.595 Z" id="Fill-99" fill="#050005"></path>
        <path d="M337.9592,70.743 C337.9592,74.754 337.1042,77.842 335.3952,80.009 C333.6862,82.176 331.2572,83.26 328.1072,83.26 C325.0792,83.26 322.6872,82.207 320.9312,80.1 C319.1742,77.994 318.2622,75.016 318.1952,71.167 L318.1952,65.635 C318.1952,61.706 319.0632,58.627 320.7992,56.399 C322.5352,54.172 324.9582,53.058 328.0672,53.058 C331.1622,53.058 333.5752,54.125 335.3042,56.258 C337.0342,58.391 337.9192,61.436 337.9592,65.393 L337.9592,70.743 Z M334.2652,65.595 C334.2652,62.486 333.7572,60.175 332.7402,58.66 C331.7242,57.147 330.1672,56.389 328.0672,56.389 C326.0352,56.389 324.4972,57.156 323.4542,58.691 C322.4112,60.225 321.8822,62.486 321.8692,65.474 L321.8692,70.743 C321.8692,73.744 322.3912,76.032 323.4342,77.607 C324.4772,79.182 326.0352,79.969 328.1072,79.969 C330.1802,79.969 331.7142,79.242 332.7102,77.788 C333.7062,76.335 334.2242,74.108 334.2652,71.106 L334.2652,65.595 Z" id="Fill-101" fill="#050005"></path>
        <polygon id="Fill-104" fill="#050005" points="347.3872 79.686 358.9142 79.686 358.9142 82.856 343.6722 82.856 343.6722 53.462 347.3872 53.462"></polygon>
        <path d="M376.1552,75.4266 C376.1552,73.9596 375.7582,72.8356 374.9642,72.0546 C374.1702,71.2746 372.7362,70.5146 370.6642,69.7736 C368.5912,69.0336 367.0062,68.2566 365.9092,67.4426 C364.8122,66.6276 363.9922,65.6996 363.4462,64.6566 C362.9022,63.6136 362.6292,62.4186 362.6292,61.0726 C362.6292,58.7446 363.4062,56.8266 364.9612,55.3196 C366.5152,53.8126 368.5502,53.0586 371.0682,53.0586 C372.7902,53.0586 374.3242,53.4426 375.6712,54.2116 C377.0162,54.9806 378.0522,56.0516 378.7792,57.4216 C379.5062,58.7926 379.8702,60.2996 379.8702,61.9406 L376.1552,61.9406 C376.1552,60.1246 375.7172,58.7176 374.8432,57.7216 C373.9682,56.7256 372.7092,56.2276 371.0682,56.2276 C369.5732,56.2276 368.4162,56.6456 367.5952,57.4816 C366.7742,58.3176 366.3642,59.4906 366.3642,61.0006 C366.3642,62.2406 366.8082,63.2786 367.6962,64.1146 C368.5842,64.9506 369.9572,65.6996 371.8142,66.3596 C374.7082,67.3166 376.7772,68.4956 378.0222,69.8956 C379.2672,71.2946 379.8902,73.1256 379.8902,75.3866 C379.8902,77.7686 379.1152,79.6766 377.5682,81.1096 C376.0202,82.5426 373.9142,83.2596 371.2492,83.2596 C369.5402,83.2596 367.9622,82.8856 366.5152,82.1396 C365.0682,81.3916 363.9312,80.3426 363.1032,78.9896 C362.2752,77.6366 361.8622,76.0856 361.8622,74.3366 L365.5772,74.3366 C365.5772,76.1536 366.0842,77.5666 367.1012,78.5756 C368.1162,79.5856 369.4992,80.0896 371.2492,80.0896 C372.8782,80.0896 374.1022,79.6726 374.9232,78.8376 C375.7442,78.0036 376.1552,76.8666 376.1552,75.4266" id="Fill-105" fill="#050005"></path>
        <path d="M57.8605,12.0866 L56.3385,10.5306 C50.3595,4.4126 42.1645,1.0446 33.2625,1.0446 C15.3275,1.0446 0.7375,15.6366 0.7375,33.5696 C0.7375,51.5046 12.8665,68.0246 33.2625,68.0246 L33.2625,59.7746 C26.3215,59.7746 19.9555,59.1556 15.0455,54.9686 L33.2805,36.7046 L49.4205,52.8446 L51.5035,48.6916 L36.3955,33.5866 L57.8605,12.0866 Z M11.9215,51.8536 C7.6995,46.9346 5.1495,40.5456 5.1495,33.5696 C5.1495,26.6096 7.6945,20.2386 11.8985,15.3256 L30.1625,33.5866 L11.9215,51.8536 Z M33.2775,30.4656 L15.0165,12.2076 C19.9325,8.0036 26.3035,5.4556 33.2625,5.4556 C40.3145,5.4556 46.6075,7.7496 51.6015,12.1156 L33.2775,30.4656 Z" id="Fill-107" fill="#3DD1FF"></path>
        <path d="M93.8926,59.7747 L93.8926,68.0247 C100.7136,68.0247 106.9726,68.5347 111.8456,72.5867 L68.7796,115.6527 L70.2286,117.2087 C76.0206,123.4417 84.2046,126.7317 93.8926,126.7317 C111.8276,126.7317 126.4176,112.1427 126.4176,94.2097 C126.4176,76.2747 114.2916,59.7747 93.8926,59.7747 M93.8926,122.3237 C86.2876,122.3237 79.7956,120.0407 74.9716,115.6987 L94.9966,95.6737 L113.5796,114.2547 C108.5026,119.2397 101.5516,122.3237 93.8926,122.3237 M116.4816,110.9237 L98.1146,92.5557 L115.0066,75.6637 C119.3636,80.6177 122.0086,87.1097 122.0086,94.2097 C122.0086,100.4657 119.9516,106.2497 116.4816,110.9237" id="Fill-109" fill="#3DD1FF"></path>
        <path d="M33.2629,59.7747 L33.2629,68.0247 L41.8189,68.0247 L31.9109,87.8297 L38.0209,93.9397 L50.9789,68.0247 L59.4859,68.0247 L59.7249,93.9537 L67.4419,93.9537 L67.6779,68.0247 L76.6429,68.0247 L90.1459,94.2937 L96.2699,88.1697 L85.7229,68.0247 L93.9009,68.0247 L93.9009,59.7747 L33.2629,59.7747 Z M81.3919,59.7547 L77.5819,52.5217 L75.4329,48.4327 L67.4649,33.3037 L59.2179,33.3127 L51.5039,48.6917 L49.4199,52.8447 L45.9509,59.7547 L81.3919,59.7547 Z M55.1109,59.7547 L63.6319,42.7127 L72.3929,59.7547 L55.1109,59.7547 Z" id="Fill-112" fill="#050005"></path>
        <path d="M93.6705,0.7879 C75.7355,0.7879 59.1975,12.9169 59.1975,33.3129 L67.4645,33.3129 L67.4645,33.3039 C67.4645,26.3649 68.0875,20.0059 72.2715,15.0979 L90.5355,33.3299 L75.4325,48.4329 L77.5825,52.5219 L93.6535,36.4479 L115.1525,57.9129 L116.7095,56.3889 C122.8265,50.4119 126.1955,42.2169 126.1955,33.3129 C126.1955,15.3809 111.6025,0.7879 93.6705,0.7879 L93.6705,0.7879 Z M75.3865,11.9739 C80.3055,7.7529 86.6945,5.1999 93.6705,5.1999 C100.6295,5.1999 107.0005,7.7469 111.9145,11.9509 L93.6535,30.2119 L75.3865,11.9739 Z M115.1245,51.6549 L96.7745,33.3269 L115.0345,15.0689 C119.2365,19.9829 121.7835,26.3539 121.7835,33.3129 C121.7835,40.3639 119.4895,46.6579 115.1245,51.6549 L115.1245,51.6549 Z" id="Fill-113" fill="#3DD1FF"></path>
        <path d="M59.7249,93.9537 C59.7249,100.4917 59.1339,106.5147 55.3769,111.2957 L12.3919,68.3097 L10.8379,69.7137 C4.3259,75.5947 0.7379,84.2027 0.7379,93.9537 C0.7379,111.8857 15.3279,126.4787 33.2629,126.4787 C51.1949,126.4787 67.4419,117.6577 67.4419,93.9537 L59.7249,93.9537 Z M5.1499,93.9537 C5.1499,86.2567 7.6739,79.4157 12.3019,74.4567 L30.1769,92.3317 L11.1839,111.3237 C7.4089,106.5377 5.1499,100.5067 5.1499,93.9537 L5.1499,93.9537 Z M33.2629,122.0667 C25.8999,122.0667 19.1919,119.2167 14.1749,114.5687 L33.2949,95.4497 L52.3879,114.5427 C47.3659,119.2087 40.6429,122.0667 33.2629,122.0667 L33.2629,122.0667 Z" id="Fill-115" fill="#3DD1FF"></path>
    </g>
</svg>